<svg width="24" height="25" viewBox="0 0 24 25" fill="none" xmlns="http://www.w3.org/2000/svg">
<path fill-rule="evenodd" clip-rule="evenodd" d="M11.5975 6.64967C11.8198 6.45011 12.1802 6.45011 12.4025 6.64967L16.8333 10.6276C17.0556 10.8272 17.0556 11.1508 16.8333 11.3503C16.611 11.5499 16.2506 11.5499 16.0283 11.3503L12 7.7337L7.97167 11.3503C7.74938 11.5499 7.38899 11.5499 7.16671 11.3503C6.94443 11.1508 6.94443 10.8272 7.16671 10.6276L11.5975 6.64967Z" fill="currentColor"/>
<path fill-rule="evenodd" clip-rule="evenodd" d="M12.4025 18.3503C12.1802 18.5499 11.8198 18.5499 11.5975 18.3503L7.16671 14.3724C6.94443 14.1728 6.94443 13.8492 7.16671 13.6497C7.38899 13.4501 7.74938 13.4501 7.97167 13.6497L12 17.2663L16.0283 13.6497C16.2506 13.4501 16.611 13.4501 16.8333 13.6497C17.0556 13.8492 17.0556 14.1728 16.8333 14.3724L12.4025 18.3503Z" fill="currentColor"/>
</svg>
