<svg width="24" height="24" viewBox="0 0 24 24" fill="none" xmlns="http://www.w3.org/2000/svg">
<path d="M17.9445 3.88358C16.8706 2.80964 15.1294 2.80964 14.0555 3.88358L13 4.93904L19.0607 10.9997L20.1161 9.94424C21.1901 8.8703 21.1901 7.1291 20.1161 6.05516L17.9445 3.88358Z" fill="#C5C5C5"/>
<path fill-rule="evenodd" clip-rule="evenodd" d="M18 12.0604L11.9393 5.9997L4.05546 13.8836C3.53973 14.3993 3.25 15.0988 3.25 15.8281V19.9997C3.25 20.4139 3.58579 20.7497 4 20.7497H8.17157C8.90092 20.7497 9.60039 20.46 10.1161 19.9442L18 12.0604ZM6 14.0604L9.93934 17.9997L9.05546 18.8836C8.82104 19.118 8.50309 19.2497 8.17157 19.2497H6.81066L4.75 17.189V15.8281C4.75 15.4966 4.8817 15.1787 5.11612 14.9442L6 14.0604Z" fill="#C5C5C5"/>
</svg>
