<svg width="24" height="24" viewBox="0 0 24 24" fill="none" xmlns="http://www.w3.org/2000/svg">
<path d="M8.4 4.86732L8.4 4.86744C8.40104 5.78796 8.78163 6.66968 9.45691 7.31937C10.1321 7.96893 11.0467 8.33365 11.9999 8.33465H12C12.7112 8.33465 13.4067 8.13177 13.9986 7.75127C14.5905 7.37074 15.0525 6.82948 15.3254 6.19549C15.5984 5.56144 15.6699 4.86352 15.5307 4.19015C15.3915 3.5168 15.0479 2.89885 14.5442 2.4142C14.0405 1.9296 13.3992 1.59999 12.7016 1.46649C12.004 1.33299 11.2809 1.40147 10.6236 1.66343C9.96623 1.9254 9.40375 2.36927 9.00772 2.9395C8.61166 3.50978 8.4 4.18067 8.4 4.86732ZM18.8415 16.3188C19.0065 16.16 19.1 15.9438 19.1 15.7176C19.1 13.9037 18.351 12.1648 17.0191 10.8834C15.6873 9.60212 13.8818 8.88294 12 8.88294C10.1182 8.88294 8.3127 9.60212 6.98092 10.8834C5.64901 12.1648 4.9 13.9037 4.9 15.7176C4.9 15.9438 4.99346 16.16 5.15847 16.3188C5.32336 16.4774 5.5462 16.5659 5.77778 16.5659C6.00936 16.5659 6.2322 16.4774 6.39708 16.3188C6.5621 16.16 6.65556 15.9438 6.65556 15.7176C6.65556 14.3562 7.21765 13.0497 8.21953 12.0858C9.22154 11.1218 10.5813 10.5795 12 10.5795C13.4187 10.5795 14.7785 11.1218 15.7805 12.0858C16.7823 13.0497 17.3444 14.3562 17.3444 15.7176C17.3444 15.9438 17.4379 16.16 17.6029 16.3188C17.7678 16.4774 17.9906 16.5659 18.2222 16.5659C18.4538 16.5659 18.6766 16.4774 18.8415 16.3188ZM10.4654 5.84961C10.2632 5.55852 10.1556 5.21673 10.1556 4.86743C10.1561 4.3992 10.3496 3.94947 10.695 3.61715C11.0405 3.28474 11.5098 3.09711 12 3.09659C12.3656 3.09659 12.7228 3.20092 13.0262 3.39598C13.3296 3.59102 13.5655 3.86784 13.7046 4.19097C13.8437 4.51405 13.88 4.86933 13.8092 5.21204C13.7383 5.55478 13.5633 5.87016 13.3056 6.11807C13.0479 6.36602 12.7191 6.53529 12.3605 6.6039C12.002 6.67251 11.6304 6.63726 11.2929 6.50276C10.9554 6.36827 10.6676 6.14077 10.4654 5.84961ZM5.77778 17.8625C5.29667 17.8625 4.9 18.2387 4.9 18.7108C4.9 19.1829 5.29667 19.5591 5.77778 19.5591H18.2222C18.7033 19.5591 19.1 19.1829 19.1 18.7108C19.1 18.2387 18.7033 17.8625 18.2222 17.8625H5.77778ZM5.77778 20.9034C5.29667 20.9034 4.9 21.2796 4.9 21.7517C4.9 22.2238 5.29667 22.6 5.77778 22.6H18.2222C18.7033 22.6 19.1 22.2238 19.1 21.7517C19.1 21.2796 18.7033 20.9034 18.2222 20.9034H5.77778Z" fill="white" stroke="white" stroke-width="0.2"/>
</svg>
